<svg height="423pt" viewBox="-14 0 423 423.3304" width="423pt" xmlns="http://www.w3.org/2000/svg"><path d="m279.863281 76.910156c-1.449219-1.136718-3.34375-1.542968-5.136719-1.101562l-121.984374 30.089844c-2.679688.660156-4.566407 3.066406-4.566407 5.828124v131.839844c-6.660156-4.90625-14.730469-7.519531-23.003906-7.449218-19.300781 0-35.007813 13.515624-35.007813 30.125 0 16.613281 15.699219 30.128906 35.007813 30.128906 19.304687 0 35.003906-13.515625 35.003906-30.128906v-102.109376l109.988281-27.128906v54.511719c-6.660156-4.90625-14.734374-7.519531-23.003906-7.449219-19.300781 0-35.007812 13.515625-35.007812 30.125 0 16.613282 15.699218 30.128906 35.007812 30.128906 19.304688 0 35.003906-13.515624 35.003906-30.128906v-132.558594c0-1.84375-.847656-3.585937-2.300781-4.722656zm-154.691406 207.453125c-12.6875 0-23.007813-8.128906-23.007813-18.125 0-9.996093 10.320313-18.128906 23.007813-18.128906 12.683594 0 23.003906 8.132813 23.003906 18.128906 0 9.996094-10.320312 18.125-23.003906 18.125zm35.003906-132.59375v-35.347656l109.988281-27.128906v35.351562zm86.984375 80.546875c-12.6875 0-23.007812-8.132812-23.007812-18.125 0-9.996094 10.320312-18.128906 23.007812-18.128906 12.683594 0 23.003906 8.132812 23.003906 18.128906 0 9.992188-10.320312 18.128906-23.003906 18.128906zm0 0" fill="#0635c9"/><path d="m186.164062 0c-102.558593 0-186 83.4375-186 186s83.441407 186 186 186c16.101563.007812 32.132813-2.070312 47.699219-6.179688 2.082031-.542968 3.714844-2.15625 4.28125-4.230468.566407-2.074219-.023437-4.289063-1.539062-5.8125-1.519531-1.523438-3.738281-2.117188-5.8125-1.558594-14.5625 3.847656-29.5625 5.789062-44.625 5.78125-95.945313 0-174-78.054688-174-174s78.054687-174 174-174c95.945312 0 174 78.054688 174 174 .085937 27.160156-6.261719 53.953125-18.515625 78.1875-1.003906 1.917969-.894532 4.230469.285156 6.042969 1.179688 1.816406 3.242188 2.855469 5.402344 2.722656s4.078125-1.417969 5.027344-3.363281c13.101562-25.910156 19.886718-54.554688 19.800781-83.59375-.003907-102.558594-83.441407-185.996094-186.003907-185.996094zm0 0" fill="#0635c9"/><path d="m349.855469 261.609375c-39.554688-21.320313-88.859375-8.597656-113.15625 29.199219-24.300781 37.800781-15.402344 87.9375 20.417969 115.070312 14.921874 11.375 33.175781 17.507813 51.9375 17.449219 39.394531-.003906 73.75-26.769531 83.386718-64.96875 9.636719-38.195313-7.910156-78.054687-42.585937-96.75zm-40.796875 149.71875c-40.878906.007813-74.019532-33.128906-74.019532-74.003906s33.136719-74.015625 74.011719-74.011719c40.875 0 74.011719 33.140625 74.007813 74.015625-.222656 40.777344-33.226563 73.78125-74.003906 74zm0 0" fill="#1ae5be"/><path d="m313.300781 283.09375c-.136719-.144531-.285156-.277344-.441406-.402344-.019531-.019531-.046875-.035156-.070313-.054687-.128906-.101563-.261718-.199219-.402343-.292969-.027344-.019531-.058594-.039062-.089844-.058594-.132813-.085937-.269531-.167968-.414063-.246094-.019531-.011718-.042968-.019531-.0625-.03125-.152343-.078124-.308593-.152343-.464843-.21875l-.050781-.019531c-.164063-.066406-.332032-.125-.5-.179687-.015626-.003906-.035157-.007813-.050782-.011719-.167968-.050781-.339844-.09375-.515625-.128906-.046875-.011719-.09375-.015625-.140625-.023438-.144531-.027343-.292968-.050781-.441406-.066406-.398438-.039063-.800781-.039063-1.199219 0-.15625.015625-.308593.042969-.457031.070313-.042969.007812-.082031.007812-.125.015624-.179688.039063-.359375.085938-.535156.136719l-.03125.007813c-.175782.054687-.351563.117187-.519532.1875l-.03125.011718c-.164062.066407-.324218.144532-.480468.226563-.015625.007813-.035156.015625-.050782.023437-.144531.078126-.289062.164063-.425781.257813-.027343.015625-.054687.027344-.078125.046875-.140625.089844-.273437.191406-.402344.296875-.019531.019531-.046874.035156-.070312.054687-.152344.125-.300781.257813-.441406.398438l-37.707032 37.707031c-2.3125 2.347657-2.296874 6.121094.03125 8.449219 2.332032 2.332031 6.105469 2.34375 8.453126.035156l27.46875-27.46875v85.511719c0 3.316406 2.6875 6 6 6s6-2.683594 6-6v-85.511719l27.46875 27.46875c2.347656 2.308594 6.121093 2.296875 8.453124-.035156 2.328126-2.328125 2.34375-6.101562.03125-8.449219zm0 0" fill="#1ae5be"/><path d="m258.078125 358.316406c-6.105469-20.703125-2.875-43.035156 8.847656-61.160156 11.726563-18.121094 30.773438-30.222656 52.15625-33.140625-28.597656-3.945313-56.878906 9.101563-72.441406 33.417969s-15.5625 55.460937 0 79.777344c15.5625 24.316406 43.84375 37.363281 72.441406 33.417968-28.804687-4.027344-52.628906-24.457031-61.003906-52.3125zm0 0" fill="#d4e1f4"/></svg>